<svg width="21" height="21" viewBox="0 0 21 21" fill="none" xmlns="http://www.w3.org/2000/svg">
<path d="M4.71769 8.83337C3.80103 8.83337 3.05103 9.58337 3.05103 10.5C3.05103 11.4167 3.80103 12.1667 4.71769 12.1667C5.63436 12.1667 6.38436 11.4167 6.38436 10.5C6.38436 9.58337 5.63436 8.83337 4.71769 8.83337Z" stroke="#C0C0D6" stroke-width="1.5"/>
<path d="M16.3844 8.83337C15.4678 8.83337 14.7178 9.58337 14.7178 10.5C14.7178 11.4167 15.4678 12.1667 16.3844 12.1667C17.3011 12.1667 18.0511 11.4167 18.0511 10.5C18.0511 9.58337 17.3011 8.83337 16.3844 8.83337Z" stroke="#C0C0D6" stroke-width="1.5"/>
<path d="M10.5509 8.83337C9.63428 8.83337 8.88428 9.58337 8.88428 10.5C8.88428 11.4167 9.63428 12.1667 10.5509 12.1667C11.4676 12.1667 12.2176 11.4167 12.2176 10.5C12.2176 9.58337 11.4676 8.83337 10.5509 8.83337Z" stroke="#C0C0D6" stroke-width="1.5"/>
</svg>
