<svg width="21" height="21" viewBox="0 0 21 21" fill="none" xmlns="http://www.w3.org/2000/svg">
<path d="M15.8425 12.9612L15.8425 12.9612L15.8445 12.9645C16.0499 13.3016 16.0846 13.6935 15.9498 14.0514C15.8106 14.4208 15.5283 14.6931 15.1675 14.8117L15.1675 14.8117L15.1633 14.8131C13.6263 15.3281 12.007 15.5826 10.3849 15.5826C8.76296 15.5826 7.14488 15.3281 5.60984 14.8059L5.60833 14.8053C5.17608 14.6593 4.89448 14.3751 4.78268 14.063L4.7827 14.063L4.78055 14.0571C4.65914 13.7269 4.68975 13.3463 4.91957 12.9604C4.9199 12.9598 4.92024 12.9593 4.92058 12.9587L5.76004 11.5707L5.76012 11.5707L5.76611 11.5605C5.89962 11.3316 6.00391 11.0413 6.0743 10.7825C6.14454 10.5241 6.20161 10.2213 6.20161 9.95756V7.84923C6.20161 5.54595 8.07498 3.66589 10.3849 3.66589C12.6949 3.66589 14.5683 5.54595 14.5683 7.84923V9.95756C14.5683 10.2213 14.6254 10.524 14.6954 10.7827C14.7658 11.0431 14.8692 11.3318 14.9993 11.5611L15.0042 11.5696L15.0092 11.5779L15.8425 12.9612Z" stroke="#ffffff" stroke-width="1.5"/>
<mask id="path-2-inside-1_4442_334" fill="white">
<path d="M12.2432 3.2665C11.6682 3.0415 11.0432 2.9165 10.3849 2.9165C9.73491 2.9165 9.10991 3.03317 8.53491 3.2665C8.89325 2.5915 9.60158 2.1665 10.3849 2.1665C11.1766 2.1665 11.8766 2.5915 12.2432 3.2665Z"/>
</mask>
<path d="M12.2432 3.2665L11.6966 4.66337L15.5222 6.16033L13.5613 2.55051L12.2432 3.2665ZM8.53491 3.2665L7.21003 2.56317L5.27504 6.20815L9.09894 4.65642L8.53491 3.2665ZM12.7898 1.86964C12.0454 1.57835 11.2353 1.4165 10.3849 1.4165V4.4165C10.8512 4.4165 11.2911 4.50466 11.6966 4.66337L12.7898 1.86964ZM10.3849 1.4165C9.55479 1.4165 8.7369 1.56574 7.97089 1.87658L9.09894 4.65642C9.48293 4.5006 9.91504 4.4165 10.3849 4.4165V1.4165ZM9.8598 3.96984C9.9537 3.79294 10.1476 3.6665 10.3849 3.6665V0.666504C9.05557 0.666504 7.83279 1.39007 7.21003 2.56317L9.8598 3.96984ZM10.3849 3.6665C10.6245 3.6665 10.8199 3.78872 10.9252 3.9825L13.5613 2.55051C12.9333 1.39429 11.7286 0.666504 10.3849 0.666504V3.6665Z" fill="#ffffff" mask="url(#path-2-inside-1_4442_334)"/>
<mask id="path-4-inside-2_4442_334" fill="white">
<path d="M12.7262 17.1741C12.3762 18.1408 11.4512 18.8324 10.3678 18.8324C9.70949 18.8324 9.05949 18.5658 8.60116 18.0908C8.33449 17.8408 8.13449 17.5074 8.01782 17.1658C8.12616 17.1824 8.23449 17.1908 8.35116 17.2074C8.54282 17.2324 8.74282 17.2574 8.94282 17.2741C9.41782 17.3158 9.90116 17.3408 10.3845 17.3408C10.8595 17.3408 11.3345 17.3158 11.8012 17.2741C11.9762 17.2574 12.1512 17.2491 12.3178 17.2241C12.4512 17.2074 12.5845 17.1908 12.7262 17.1741Z"/>
</mask>
<path d="M12.7262 17.1741L14.1366 17.6848L14.9636 15.4005L12.5509 15.6844L12.7262 17.1741ZM8.60116 18.0908L9.68058 17.0492L9.65449 17.0222L9.62707 16.9965L8.60116 18.0908ZM8.01782 17.1658L8.24591 15.6832L5.79795 15.3066L6.5983 17.6505L8.01782 17.1658ZM8.35116 17.2074L8.13902 18.6924L8.14808 18.6937L8.15715 18.6948L8.35116 17.2074ZM8.94282 17.2741L9.0739 15.7798L9.06739 15.7793L8.94282 17.2741ZM11.8012 17.2741L11.9346 18.7682L11.9434 18.7673L11.8012 17.2741ZM12.3178 17.2241L12.1318 15.7357L12.1135 15.738L12.0953 15.7407L12.3178 17.2241ZM11.3158 16.6634C11.1728 17.0583 10.7966 17.3324 10.3678 17.3324V20.3324C12.1057 20.3324 13.5795 19.2233 14.1366 17.6848L11.3158 16.6634ZM10.3678 17.3324C10.1027 17.3324 9.84673 17.2214 9.68058 17.0492L7.52173 19.1323C8.27225 19.9101 9.31627 20.3324 10.3678 20.3324V17.3324ZM9.62707 16.9965C9.56356 16.9369 9.48605 16.8237 9.43735 16.6811L6.5983 17.6505C6.78292 18.1912 7.10542 18.7446 7.57524 19.1851L9.62707 16.9965ZM7.78974 18.6483C7.87733 18.6618 7.95929 18.671 8.01263 18.6771C8.07381 18.684 8.10669 18.6877 8.13902 18.6924L8.56329 15.7225C8.47896 15.7105 8.39933 15.7017 8.35009 15.6961C8.29302 15.6897 8.26664 15.6864 8.24591 15.6832L7.78974 18.6483ZM8.15715 18.6948C8.351 18.7201 8.58076 18.7491 8.81825 18.7689L9.06739 15.7793C8.90489 15.7657 8.73465 15.7448 8.54516 15.72L8.15715 18.6948ZM8.81175 18.7684C9.32235 18.8132 9.85006 18.8408 10.3845 18.8408V15.8408C9.95225 15.8408 9.51329 15.8184 9.0739 15.7798L8.81175 18.7684ZM10.3845 18.8408C10.9115 18.8408 11.4316 18.8131 11.9346 18.7682L11.6678 15.78C11.2373 15.8185 10.8075 15.8408 10.3845 15.8408V18.8408ZM11.9434 18.7673C12.0173 18.7603 12.3246 18.7399 12.5403 18.7075L12.0953 15.7407C11.9777 15.7583 11.935 15.7546 11.6589 15.7809L11.9434 18.7673ZM12.5039 18.7125C12.6379 18.6958 12.766 18.6798 12.9014 18.6638L12.5509 15.6844C12.403 15.7018 12.2645 15.7191 12.1318 15.7357L12.5039 18.7125Z" fill="#ffffff" mask="url(#path-4-inside-2_4442_334)"/>
<path d="M17.1821 4.42965C17.1821 5.30175 16.4751 6.00873 15.603 6.00873C14.7309 6.00873 14.0239 5.30175 14.0239 4.42965C14.0239 3.55755 14.7309 2.85057 15.603 2.85057C16.4751 2.85057 17.1821 3.55755 17.1821 4.42965Z" fill="#ffffff" stroke="#ffffff" stroke-width="1.5"/>
</svg>
