<svg width="21" height="21" viewBox="0 0 21 21" fill="none" xmlns="http://www.w3.org/2000/svg">
<path fill-rule="evenodd" clip-rule="evenodd" d="M10.2668 0.511366C9.13063 0.691016 8.13917 2.1109 7.47949 4.50316C7.29643 5.16695 7.09136 6.18281 7.00104 6.87321C6.98169 7.02117 6.97217 7.05187 6.94194 7.06405C6.92212 7.07203 6.80947 7.09154 6.69162 7.1074C5.27399 7.29811 3.79011 7.68535 2.74523 8.13727C1.46372 8.6915 0.677428 9.36612 0.443537 10.112C0.245861 10.7424 0.436787 11.3638 1.00417 11.9364C1.98256 12.9239 4.05118 13.6972 6.73523 14.0788C6.87706 14.099 6.99465 14.1173 6.99653 14.1195C6.9984 14.1217 7.02147 14.2641 7.04781 14.4359C7.36443 16.5017 7.97144 18.3041 8.69376 19.3235C8.92467 19.6493 9.21733 19.9627 9.43734 20.1196C9.84695 20.4118 10.2743 20.5399 10.6707 20.4892C11.1048 20.4336 11.487 20.2252 11.8774 19.8311L12.0632 19.6436L12.0532 19.7758C12.0382 19.9736 12.0909 20.0912 12.2257 20.1613C12.2983 20.1991 12.4465 20.1846 12.5195 20.1326C12.6375 20.0486 12.6413 20.0272 12.6648 19.3237C12.6806 18.8535 12.6809 18.6712 12.6662 18.6266C12.638 18.5414 12.5451 18.4586 12.4488 18.433C12.3704 18.4121 12.3538 18.4153 12.0738 18.505C11.0405 18.8361 11.1171 18.8079 11.0502 18.882C10.9368 19.0074 10.9421 19.1632 11.0641 19.2851C11.1619 19.3829 11.2502 19.3986 11.414 19.3473C11.4774 19.3274 11.5319 19.3137 11.5351 19.3169C11.5489 19.3306 11.2167 19.6264 11.1112 19.6943C10.5779 20.0375 10.0784 19.95 9.55216 19.4213C8.73626 18.6013 8.06073 16.8479 7.67359 14.5452C7.64122 14.3525 7.61697 14.1926 7.61973 14.1897C7.62248 14.1868 7.74827 14.1964 7.89925 14.2111C10.6208 14.4752 13.6868 14.2772 16.0451 13.6851C16.9877 13.4485 17.6916 13.1992 18.3879 12.8554C18.9941 12.5562 19.3734 12.2987 19.7281 11.9455C20.0365 11.6384 20.2147 11.3578 20.3185 11.016C20.3614 10.875 20.3671 10.8265 20.3679 10.5977C20.3686 10.4028 20.3609 10.3101 20.337 10.2228C20.2315 9.83698 20.0328 9.51815 19.6943 9.1915L19.5229 9.02608L19.6809 9.0282C19.9161 9.03136 20.0167 8.9702 20.0535 8.80169C20.0808 8.67722 20.0365 8.56591 19.9272 8.48432C19.868 8.44021 19.6352 8.42384 18.9552 8.41604L18.4929 8.41072L18.427 8.46074C18.2656 8.58326 18.2685 8.65157 18.4607 9.25279C18.545 9.51624 18.6303 9.78403 18.6502 9.84785C18.7183 10.0651 18.8826 10.16 19.0682 10.0891C19.2266 10.0287 19.2861 9.86038 19.2214 9.6554L19.186 9.54328L19.2532 9.60404C19.4899 9.8178 19.6708 10.0854 19.7431 10.3287C19.7787 10.4487 19.7804 10.698 19.7464 10.8256C19.6525 11.1782 19.3707 11.528 18.9147 11.8581C18.1747 12.3938 16.9115 12.8859 15.4415 13.211C15.0982 13.2869 14.5433 13.3912 14.2123 13.442L14.0545 13.4662L14.0646 13.42C14.1171 13.178 14.1297 13.0587 14.1103 12.9865C14.0584 12.7939 13.8082 12.7061 13.6494 12.8247C13.5467 12.9013 13.5256 12.9665 13.4645 13.3959C13.4401 13.5675 13.4837 13.546 13.0755 13.5875C12.1012 13.6864 11.5519 13.7118 10.3791 13.7121C9.22195 13.7124 8.60474 13.6849 7.74034 13.5944C7.55947 13.5755 7.53824 13.5696 7.53079 13.536C7.49208 13.3617 7.40708 12.2406 7.37754 11.5148C7.35447 10.9483 7.36527 9.5049 7.39627 9.00878C7.51965 7.03488 7.79497 5.42733 8.24703 4.04163C8.92408 1.96624 9.85391 0.887626 10.7516 1.13631C10.9204 1.18309 11.0179 1.23338 11.1924 1.36384C12.1886 2.10824 13.023 4.262 13.4071 7.08071C13.4332 7.27217 13.4649 7.45388 13.4774 7.48449C13.49 7.51511 13.5306 7.56331 13.5677 7.59161C13.6255 7.63563 13.6513 7.64306 13.7469 7.64306C13.8718 7.64306 13.9292 7.61266 13.9996 7.50935C14.0547 7.42835 14.0521 7.3451 13.978 6.82609C13.675 4.70412 13.1257 2.96593 12.4 1.83206C12.1502 1.44179 11.8277 1.08017 11.5398 0.867506C11.3537 0.73006 11.0811 0.597415 10.8804 0.546661C10.7095 0.50344 10.4217 0.48689 10.2668 0.511366ZM9.89325 6.86428C9.72252 6.87738 9.66998 6.90314 9.59784 7.00912C9.51016 7.1379 9.56664 7.35312 9.70716 7.42567C9.76877 7.45748 9.80662 7.46093 10.0551 7.45747C10.2796 7.45432 10.3482 7.44724 10.4073 7.42113C10.506 7.37745 10.5622 7.29463 10.5718 7.17854C10.5818 7.05866 10.5399 6.96811 10.4457 6.90579C10.3837 6.86482 10.3548 6.8586 10.2119 6.85569C10.1221 6.85385 9.97877 6.85771 9.89325 6.86428ZM11.2938 6.9043C11.1469 6.97698 11.0904 7.15099 11.1645 7.30268C11.2219 7.42021 11.2932 7.45597 11.5074 7.47475C11.8466 7.50447 11.918 7.50183 11.9985 7.45657C12.1885 7.34983 12.1993 7.0841 12.0191 6.95069C11.9844 6.92494 11.9152 6.90921 11.7602 6.89179C11.4599 6.85807 11.383 6.86012 11.2938 6.9043ZM8.42375 6.92126C8.33535 6.92901 8.22893 6.94044 8.18723 6.94663C7.98405 6.97682 7.87677 7.22638 7.99207 7.40057C8.08444 7.54012 8.13418 7.54891 8.62262 7.51202C8.87256 7.49315 8.93879 7.47207 9.00252 7.39107C9.12118 7.24025 9.07954 7.0219 8.91622 6.9386C8.83819 6.89881 8.72505 6.89482 8.42375 6.92126ZM6.89692 7.71001C6.89688 7.72229 6.88503 7.85283 6.87058 8.00011C6.71476 9.58858 6.7221 11.549 6.89006 13.2011C6.90537 13.3516 6.91283 13.4799 6.90665 13.4861C6.88946 13.5032 6.1918 13.3916 5.69163 13.2917C4.01364 12.9563 2.65987 12.4534 1.82502 11.8552C1.51815 11.6354 1.20176 11.2936 1.07685 11.047C1.0203 10.9354 0.968425 10.7162 0.968729 10.5903C0.970407 9.89692 1.77847 9.17277 3.18056 8.60815C4.14297 8.22059 5.24947 7.93886 6.7184 7.70735C6.86253 7.68462 6.89697 7.68514 6.89692 7.71001ZM13.7484 8.08766C13.6577 8.12108 13.6129 8.16335 13.5724 8.25363C13.5421 8.3214 13.5406 8.34718 13.5572 8.52142C13.5672 8.62745 13.5755 8.7584 13.5756 8.8124C13.5758 9.01485 13.6536 9.14328 13.8032 9.18809C13.9509 9.23235 14.1228 9.13805 14.1677 8.98803C14.1964 8.89258 14.1559 8.32721 14.1144 8.24226C14.0475 8.10537 13.8858 8.03705 13.7484 8.08766ZM13.8396 9.68632C13.7649 9.70983 13.6852 9.77344 13.6521 9.83587C13.6082 9.91888 13.6166 10.4301 13.6637 10.5368C13.719 10.6621 13.8482 10.7246 13.9952 10.697C14.0803 10.681 14.1948 10.5764 14.218 10.4933C14.2384 10.4202 14.2246 9.98528 14.1985 9.88102C14.1818 9.81411 14.0617 9.68717 14.0152 9.68717C14.0017 9.68717 13.9675 9.68355 13.9393 9.67914C13.9111 9.67471 13.8662 9.67795 13.8396 9.68632ZM13.8076 11.2701C13.7472 11.295 13.6804 11.3535 13.6539 11.4049C13.6163 11.4774 13.5727 11.9697 13.5962 12.0549C13.6193 12.1384 13.7068 12.2335 13.7839 12.2589C13.8694 12.2871 13.9884 12.2715 14.0564 12.2231C14.1498 12.1566 14.1755 12.0796 14.2009 11.7903C14.2221 11.5499 14.2214 11.5213 14.1928 11.4464C14.1484 11.3302 14.0641 11.2705 13.9353 11.2641C13.8798 11.2614 13.8224 11.2641 13.8076 11.2701Z" fill="#017EFA" stroke="#017EFA" stroke-width="0.5"/>
</svg>
