<svg width="21" height="21" viewBox="0 0 21 21" fill="none" xmlns="http://www.w3.org/2000/svg">
<path d="M10.5123 13.448C8.84098 13.448 7.48901 12.146 7.48901 10.5105C7.48901 8.87512 8.84098 7.56262 10.5123 7.56262C12.1836 7.56262 13.5037 8.87512 13.5037 10.5105C13.5037 12.146 12.1836 13.448 10.5123 13.448Z" fill="#FFFFFF"/>
<path opacity="0.4" d="M20.1146 12.9689C19.9123 12.6564 19.6249 12.3439 19.2523 12.146C18.9542 12.0002 18.7626 11.7606 18.5923 11.4793C18.0494 10.5835 18.3687 9.40641 19.2736 8.87516C20.3381 8.28141 20.6788 6.9585 20.0613 5.92725L19.3481 4.69808C18.7413 3.66683 17.4106 3.30225 16.3567 3.90641C15.4199 4.40641 14.217 4.07308 13.6741 3.18766C13.5038 2.896 13.408 2.5835 13.4293 2.271C13.4612 1.86475 13.3334 1.47933 13.1418 1.16683C12.7479 0.520996 12.0347 0.0834961 11.2469 0.0834961H9.74595C8.96883 0.104329 8.25559 0.520996 7.86171 1.16683C7.65945 1.47933 7.54235 1.86475 7.56364 2.271C7.58493 2.5835 7.48912 2.896 7.3188 3.18766C6.77588 4.07308 5.57295 4.40641 4.64681 3.90641C3.58227 3.30225 2.26224 3.66683 1.64481 4.69808L0.931565 5.92725C0.324778 6.9585 0.665431 8.28141 1.71932 8.87516C2.62418 9.40641 2.94354 10.5835 2.41127 11.4793C2.2303 11.7606 2.03869 12.0002 1.74061 12.146C1.37867 12.3439 1.05931 12.6564 0.888984 12.9689C0.495104 13.6147 0.516395 14.4272 0.910275 15.1043L1.64481 16.3543C2.03869 17.021 2.77322 17.4377 3.53969 17.4377C3.90163 17.4377 4.32744 17.3335 4.6681 17.1252C4.93423 16.9481 5.25359 16.8856 5.60489 16.8856C6.65878 16.8856 7.54235 17.7502 7.56364 18.7814C7.56364 19.9793 8.54302 20.9168 9.77788 20.9168H11.2257C12.4499 20.9168 13.4293 19.9793 13.4293 18.7814C13.4612 17.7502 14.3448 16.8856 15.3986 16.8856C15.7393 16.8856 16.0587 16.9481 16.3354 17.1252C16.6761 17.3335 17.0913 17.4377 17.4639 17.4377C18.2197 17.4377 18.9542 17.021 19.3481 16.3543L20.0933 15.1043C20.4765 14.4064 20.5084 13.6147 20.1146 12.9689Z" fill="#FFFFFF"/>
</svg>
