<svg width="21" height="21" viewBox="0 0 21 21" fill="none" xmlns="http://www.w3.org/2000/svg">
<g clip-path="url(#clip0_4442_313)">
<path d="M10.2847 18.9637V17.6331C10.2847 16.957 9.76005 16.4433 9.14488 16.3743C5.5702 15.9732 2.78467 12.9282 2.78467 9.25004C2.78467 5.29759 5.99888 2.08337 9.95133 2.08337C13.9038 2.08337 17.118 5.29759 17.118 9.25004C17.118 13.0372 14.4644 16.9511 10.401 18.9076L10.4004 18.9079L10.2847 18.9637Z" stroke="#017EFA" stroke-width="1.5"/>
<path d="M10.5846 12.0392H9.31797V13.4498H10.5846V12.0392Z" fill="#017EFA"/>
<path d="M9.31797 10.9812H10.5846C10.5846 9.39418 12.4846 9.21784 12.4846 7.45451C12.4846 5.89573 11.351 4.63318 9.9513 4.63318C8.55164 4.63318 7.41797 5.89573 7.41797 7.45451H8.68464C8.68464 6.67865 9.25464 6.04385 9.9513 6.04385C10.648 6.04385 11.218 6.67865 11.218 7.45451C11.218 8.86518 9.31797 8.68885 9.31797 10.9812Z" fill="#017EFA"/>
</g>
<defs>
<clipPath id="clip0_4442_313">
<rect width="20" height="20" fill="white" transform="translate(0.36792 0.5)"/>
</clipPath>
</defs>
</svg>
