<svg width="15" height="15" viewBox="0 0 15 15" fill="none" xmlns="http://www.w3.org/2000/svg">
<path d="M12.6669 4.66663H2.75024C2.36066 4.66663 2.04191 4.34788 2.04191 3.95829C2.04191 3.56871 2.36066 3.24996 2.75024 3.24996H12.6669C13.0565 3.24996 13.3752 3.56871 13.3752 3.95829C13.3752 4.34788 13.0565 4.66663 12.6669 4.66663ZM11.2502 0.416626H4.16691C3.77733 0.416626 3.45858 0.735376 3.45858 1.12496C3.45858 1.51454 3.77733 1.83329 4.16691 1.83329H11.2502C11.6398 1.83329 11.9586 1.51454 11.9586 1.12496C11.9586 0.735376 11.6398 0.416626 11.2502 0.416626ZM14.7919 7.49996V13.1666C14.7919 13.9458 14.1544 14.5833 13.3752 14.5833H2.04191C1.26274 14.5833 0.625244 13.9458 0.625244 13.1666V7.49996C0.625244 6.72079 1.26274 6.08329 2.04191 6.08329H13.3752C14.1544 6.08329 14.7919 6.72079 14.7919 7.49996ZM9.96816 10.0216L6.29191 8.01704V12.6425L9.96816 10.645C10.2161 10.5104 10.2161 10.1562 9.96816 10.0216Z" fill="white" fill-opacity="0.8"/>
</svg>
